<svg width="20" height="19" viewBox="0 0 20 19" fill="none" xmlns="http://www.w3.org/2000/svg">
<path fill-rule="evenodd" clip-rule="evenodd" d="M14.9395 0.200195C16.2805 0.200195 17.5705 0.730195 18.5195 1.6812C19.4695 2.6302 20.0005 3.9102 20.0005 5.2502V13.1502C20.0005 15.9402 17.7305 18.2002 14.9395 18.2002H5.06049C2.26949 18.2002 0.000488281 15.9402 0.000488281 13.1502V5.2502C0.000488281 2.4602 2.25949 0.200195 5.06049 0.200195H14.9395ZM16.5305 6.7402L16.6105 6.6602C16.8495 6.3702 16.8495 5.9502 16.5995 5.6602C16.4605 5.5112 16.2695 5.4202 16.0705 5.4002C15.8605 5.3892 15.6605 5.4602 15.5095 5.6002L11.0005 9.2002C10.4205 9.6812 9.58949 9.6812 9.00049 9.2002L4.50049 5.6002C4.18949 5.3702 3.75949 5.4002 3.50049 5.6702C3.23049 5.9402 3.20049 6.3702 3.42949 6.6702L3.56049 6.8002L8.11049 10.3502C8.67049 10.7902 9.34949 11.0302 10.0605 11.0302C10.7695 11.0302 11.4605 10.7902 12.0195 10.3502L16.5305 6.7402Z" fill="#5865F1"/>
</svg>
