<svg width="78" height="25" viewBox="0 0 78 25" fill="none" xmlns="http://www.w3.org/2000/svg">
<path fill-rule="evenodd" clip-rule="evenodd" d="M4.99499 0.36732C5.80383 0.546377 6.31438 1.34723 6.13532 2.15608C6.02792 2.64123 5.93008 3.12824 5.84087 3.61702H17.6829C17.9051 3.61702 18.116 3.66532 18.3057 3.75198C19.0886 3.80229 19.708 4.45324 19.708 5.24886V9.92659H22.6592C22.5348 8.78997 22.4326 7.65419 22.3632 6.52341C22.3124 5.69654 22.9415 4.98506 23.7684 4.93429C24.5953 4.88352 25.3068 5.51267 25.3575 6.33954C25.4314 7.54316 25.5415 8.73669 25.6758 9.92659H27.8034C28.6318 9.92659 29.3034 10.5982 29.3034 11.4266C29.3034 12.255 28.6318 12.9266 27.8034 12.9266H26.0587C26.2331 14.173 26.4229 15.4214 26.6141 16.6792C26.9066 18.6029 27.2024 20.5487 27.4517 22.5431C27.5545 23.3652 26.9714 24.1149 26.1493 24.2176C25.3273 24.3204 24.5776 23.7373 24.4749 22.9152C24.2468 21.0911 23.9638 19.2233 23.6771 17.3321C23.4562 15.8745 23.2331 14.4029 23.0316 12.9266H19.708V16.4207C19.708 17.2491 19.0364 17.9207 18.208 17.9207C17.3796 17.9207 16.708 17.2491 16.708 16.4207V12.4394C16.4636 12.1725 16.3145 11.817 16.3145 11.4266C16.3145 11.0362 16.4636 10.6806 16.708 10.4138V6.61702H12.8476C12.6742 8.47533 11.6773 9.85619 10.4757 10.8622C9.79358 11.4334 9.02052 11.906 8.25206 12.3051C8.49919 12.469 8.74133 12.6343 8.9786 12.7988C9.31161 13.0297 9.63059 13.2556 9.94135 13.4756C10.6826 14.0004 11.377 14.492 12.1033 14.9399C14.2491 16.2631 16.4846 17.4421 18.7735 18.6411C19.5073 19.0255 19.7906 19.932 19.4062 20.6658C19.0218 21.3997 18.1153 21.6829 17.3815 21.2986C15.1014 20.1042 12.7766 18.8796 10.5286 17.4934C9.71619 16.9924 8.90006 16.4147 8.12772 15.8679C7.8344 15.6602 7.54739 15.4571 7.26929 15.2643C6.46627 14.7075 5.69781 14.2073 4.92407 13.804C4.8954 14.7693 4.87489 15.739 4.85617 16.7127C4.84024 17.5409 4.15588 18.1995 3.3276 18.1835C2.49933 18.1676 1.84079 17.4832 1.85672 16.655C1.91994 13.3678 2.00281 9.98931 2.37716 6.61702H2.17383C1.3454 6.61702 0.673828 5.94545 0.673828 5.11702C0.673828 4.28859 1.3454 3.61702 2.17383 3.61702H2.79488C2.91478 2.91205 3.05106 2.20862 3.20623 1.50765C3.38529 0.698807 4.18614 0.188263 4.99499 0.36732ZM5.39621 6.61702C5.24704 7.89153 5.14237 9.1767 5.06628 10.4712C5.0906 10.4594 5.11536 10.4482 5.14057 10.4375C6.42257 9.89776 7.64746 9.31757 8.54983 8.56204C9.2388 7.98518 9.67422 7.36479 9.81991 6.61702H5.39621ZM64.3756 3.2948C64.584 2.71678 65.1373 2.30354 65.7871 2.30354H72.8845C73.7129 2.30354 74.3845 2.97512 74.3845 3.80354C74.3845 4.63197 73.7129 5.30354 72.8845 5.30354H66.6299V9.13753H76.3017C77.1301 9.13753 77.8017 9.8091 77.8017 10.6375C77.8017 11.3575 77.2944 11.9591 76.6177 12.1042C76.6155 12.7104 76.6106 13.4859 76.5994 14.2334C76.5894 14.9087 76.5741 15.5768 76.5502 16.08C76.5386 16.3259 76.5236 16.5628 76.5024 16.7496C76.4931 16.8316 76.476 16.9661 76.4416 17.1026C76.4287 17.1535 76.3864 17.3205 76.2841 17.5041C76.2353 17.5919 76.1137 17.7935 75.8814 17.9724C75.6086 18.1825 75.1615 18.3675 74.6334 18.2502C72.6971 17.8199 70.7005 17.6994 68.5769 17.5712C68.3188 17.5557 68.059 17.54 67.7971 17.5236C66.9702 17.4719 66.3419 16.7598 66.3935 15.933C66.4452 15.1061 67.1574 14.4778 67.9842 14.5294C68.2402 14.5454 68.4989 14.5609 68.76 14.5765C70.3132 14.6694 71.9503 14.7673 73.5843 15.01C73.5904 14.7505 73.5955 14.4732 73.5998 14.1887C73.6104 13.4727 73.6153 12.7287 73.6176 12.1375H65.1299C64.3015 12.1375 63.6299 11.466 63.6299 10.6375C63.6299 10.6155 63.6304 10.5936 63.6313 10.5718C63.6304 10.55 63.6299 10.5281 63.6299 10.5061V4.59163C63.6299 4.03819 63.9296 3.55476 64.3756 3.2948ZM29.6909 4.8387C29.4765 4.82258 29.2597 4.80971 29.0418 4.80164C28.214 4.77098 27.518 5.41724 27.4874 6.2451C27.4567 7.07296 28.103 7.76892 28.9308 7.79959C29.1059 7.80607 29.2808 7.81631 29.457 7.82946V13.7381H28.1973C27.3688 13.7381 26.6973 14.4097 26.6973 15.2381C26.6973 16.0665 27.3688 16.7381 28.1973 16.7381H29.4684C29.5599 17.4789 30.1915 18.0523 30.957 18.0523C31.7226 18.0523 32.3541 17.4789 32.4456 16.7381H35.5108C35.5186 16.8792 35.5265 17.0203 35.5343 17.1613C35.5803 17.9885 36.288 18.6218 37.1152 18.5758C37.2514 18.5683 37.3823 18.5428 37.5058 18.5017C37.2482 19.0101 37.2932 19.6437 37.6724 20.1178C38.19 20.7647 39.1339 20.8696 39.7808 20.352C40.4707 19.8001 41.1854 19.2699 41.926 18.721L41.9558 18.6989C42.6798 18.1623 43.4288 17.6072 44.1603 17.0237C44.5981 16.6745 45.0321 16.3264 45.4644 15.9798C46.5033 15.1468 47.5319 14.3219 48.578 13.5083C48.7205 13.3975 48.8607 13.2752 48.9701 13.1797L48.99 13.1624C49.101 13.0654 49.1912 12.9866 49.2819 12.913C49.4662 12.7632 49.5433 12.728 49.5428 12.7267C49.5427 12.7265 49.5406 12.7272 49.5367 12.7284C50.3131 12.4895 50.7554 11.6778 50.5426 10.8998C50.6523 10.4962 50.5936 10.0491 50.3434 9.67374C50.2497 9.53317 50.1303 9.3154 49.9518 8.98142L49.9206 8.92305C49.7629 8.62788 49.5723 8.27096 49.3651 7.92811C49.1921 7.64183 48.9852 7.3271 48.7437 7.03411C48.9167 6.78961 49.0184 6.49107 49.0184 6.16878C49.0184 5.34035 48.3468 4.66878 47.5184 4.66878C45.6956 4.66878 43.8738 4.68954 42.0435 4.75794C41.7826 4.53837 41.4458 4.40608 41.0781 4.40608C40.2497 4.40608 39.5781 5.07766 39.5781 5.90608V6.28921C39.5781 6.29573 39.5781 6.30227 39.5781 6.30882V13.7381H38.3552C38.2604 11.8384 38.1836 9.9501 38.1525 8.05979C38.67 7.82321 39.0295 7.30105 39.0295 6.69491C39.0295 5.90948 38.4258 5.26505 37.6571 5.20027C37.3896 4.95224 37.0313 4.80061 36.6377 4.80061C36.2449 4.80061 35.8873 4.9516 35.6199 5.19871C34.9156 5.19974 34.2164 5.19834 33.5141 5.18778C33.1353 5.18208 32.7556 5.15648 32.3631 5.11972C32.1506 4.54952 31.6013 4.14339 30.957 4.14339C30.4247 4.14339 29.9571 4.42068 29.6909 4.8387ZM35.1545 8.19895C34.5933 8.19863 34.03 8.19588 33.469 8.18744C33.126 8.18228 32.7876 8.16416 32.457 8.13866V13.7381H35.3515C35.2606 11.8995 35.1863 10.0537 35.1545 8.19895ZM38.5154 16.7381C38.5202 16.8237 38.5249 16.9093 38.5297 16.9949C38.5412 17.2027 38.5099 17.403 38.4434 17.5872C38.8167 17.2979 39.1921 17.0153 39.5641 16.7381H38.5154ZM42.5781 14.448C42.9075 14.1847 43.2379 13.9197 43.5693 13.654C44.6155 12.8151 45.6717 11.9682 46.7362 11.1403C46.8012 11.0897 46.8793 11.0226 46.9969 10.9199L47.024 10.8963C47.1268 10.8064 47.2559 10.6936 47.3902 10.5845C47.3941 10.5813 47.3981 10.5781 47.4021 10.5749C47.37 10.5154 47.3389 10.4571 47.3089 10.401L47.2843 10.355C47.1182 10.0442 46.9622 9.75214 46.7976 9.47976C46.6234 9.1916 46.4753 8.98632 46.3533 8.85577C46.3192 8.81932 46.2938 8.79582 46.2772 8.78165C45.7551 8.61709 45.3806 8.18789 45.2659 7.68144C44.3675 7.69232 43.4723 7.71107 42.5781 7.7409V14.448ZM51.8413 5.82105C51.4219 6.08701 51.1436 6.55535 51.1436 7.0887C51.1436 7.60469 51.4041 8.05982 51.8008 8.32974V17.6035C51.8008 18.4319 52.4724 19.1035 53.3008 19.1035C53.3451 19.1035 53.389 19.1015 53.4323 19.0978C53.4759 19.1016 53.5199 19.1035 53.5645 19.1035C55.0703 19.1035 56.5649 19.0365 58.0205 18.9713L58.0357 18.9706C58.0978 18.9678 58.1598 18.965 58.2217 18.9622C58.2334 19.7455 58.2417 20.5204 58.2417 21.2839C58.2417 22.1123 58.9132 22.7839 59.7417 22.7839C60.5701 22.7839 61.2417 22.1123 61.2417 21.2839C61.2417 20.4682 61.2333 19.6582 61.2215 18.8532C61.6051 18.8452 61.9878 18.8407 62.3705 18.8407C63.1989 18.8407 63.8705 18.1691 63.8705 17.3407C63.8705 16.5122 63.1989 15.8407 62.3705 15.8407C61.9696 15.8407 61.5694 15.8454 61.1705 15.8536C61.124 12.9791 61.1122 10.1582 61.3669 7.35634C61.4292 6.67148 61.0208 6.05237 60.4083 5.81887C60.177 5.67306 59.9031 5.5887 59.6095 5.5887H54.6845C54.4577 5.04831 53.9236 4.66878 53.3008 4.66878C52.5921 4.66878 51.9981 5.1603 51.8413 5.82105ZM58.2661 8.5887H54.8008V16.0891C55.824 16.0666 56.8529 16.0206 57.9014 15.9736L57.9185 15.9728C58.0024 15.9691 58.0865 15.9653 58.1708 15.9615C58.1321 13.5195 58.1181 11.0339 58.2661 8.5887Z" fill="#4C4C60"/>
</svg>
