<svg width="111" height="24" viewBox="0 0 111 24" fill="none" xmlns="http://www.w3.org/2000/svg">
<path d="M1.51562 7.53342C2.12414 9.37742 2.89077 11.1529 3.839 12.8498C4.69137 14.3751 5.78367 15.7297 6.69481 17.2141C6.98929 17.6939 7.2432 18.2402 7.17078 18.8195C7.13426 19.1117 6.78368 17.9644 6.77548 17.9241C6.20596 15.122 7.20328 12.2534 8.66322 9.88907C9.11962 9.14995 9.73119 8.01913 10.5913 7.6625C11.7688 7.17428 12.1677 9.90375 12.3419 10.5425C12.7519 12.0458 13.1857 13.5416 13.5681 15.0521C13.7282 15.6846 13.8783 16.708 14.4394 17.1415C14.8585 17.4654 15.787 17.3624 15.4236 18.271C15.2712 18.6521 14.6117 18.8074 14.3264 18.4888C13.4622 17.5237 14.005 15.4702 14.3103 14.4309C14.9795 12.153 16.1599 10.0338 17.2791 7.95292C17.8292 6.92997 18.3807 5.52311 19.2313 4.69375C19.5324 4.40018 19.8675 4.63009 20.1107 4.86316C20.6687 5.39796 21.2812 5.57358 22.0549 5.33913C24.3896 4.63163 29.2478 -0.511701 31.4452 3.14483C32.704 5.23951 32.2764 8.21494 31.2516 10.2844C29.7404 13.3357 26.8381 15.7731 23.9588 17.4884C22.4525 18.3858 20.7223 19.118 18.9409 19.118C17.7813 19.118 17.8496 18.4089 18.473 17.6256C19.8542 15.8902 21.8212 14.4318 23.4425 12.9224C24.0589 12.3485 24.869 11.6003 25.7658 11.5509C26.8372 11.4919 27.7463 12.7761 28.5168 13.3338C32.2601 16.0432 37.6489 15.0155 40.6015 11.6155C41.0429 11.1073 41.4695 10.5885 41.852 10.0343C42.0123 9.8019 42.3089 9.12185 42.4005 9.3889C42.9716 11.0525 42.6315 12.9917 44.256 14.197C46.1934 15.6344 49.5173 15.3237 51.7021 14.9472C55.1283 14.357 58.1215 12.5654 60.1647 9.72772C61.1691 8.33266 62.1707 6.01352 61.1327 4.36299C59.8369 2.30241 57.0854 3.58416 55.7599 4.85509C53.8647 6.67228 52.1624 9.43611 52.1216 12.1318C52.0932 14.0056 52.9887 14.9772 54.9048 14.923C56.885 14.8671 58.7332 13.9431 60.1082 12.5513C60.3423 12.3143 62.2049 10.3534 61.5119 9.96167C61.1905 9.78001 60.4415 9.87456 60.2776 10.2602C60.2006 10.4414 60.4677 10.5167 60.568 10.5183C61.7429 10.5377 63.0121 9.79096 63.9885 9.26789C66.0873 8.14356 68.0524 6.7956 69.9906 5.4198C70.0686 5.36444 71.0244 4.67844 71.2168 4.59694C71.8093 4.34602 70.7072 5.7858 70.3536 6.32333C68.0139 9.88048 65.7496 13.4823 63.8433 17.2948C63.5121 17.9573 62.9594 19.1583 62.6494 19.8763C62.5263 20.1614 61.5715 21.9016 61.8426 22.2481C61.9223 22.35 68.2288 15.3562 68.6676 14.8908C71.042 12.3716 73.5699 10.0048 75.9442 7.48502C76.0087 7.41662 77.6401 5.74002 76.9284 5.96031C75.5198 6.3963 74.4709 8.30913 73.8467 9.50184C73.159 10.816 72.2897 12.9684 72.9835 14.4551C73.5658 15.7028 75.3872 15.0847 76.2669 14.6165C78.1383 13.6206 79.6851 12.0918 81.3735 10.8329C82.6451 9.88482 84.0576 9.11261 85.2539 8.06586C85.5887 7.77285 86.5511 6.84947 86.2058 7.13006C84.5464 8.47832 83.2291 10.2988 81.9947 12.0188C81.4684 12.7521 80.8412 13.6515 80.3409 14.4229C80.0588 14.8578 79.16 15.9118 79.6713 15.8266C80.1934 15.7396 80.4823 15.1432 80.8491 14.7617C82.2335 13.3219 83.5658 11.8421 85.028 10.478C86.5274 9.07911 88.4664 7.17941 90.6105 6.85577C92.2216 6.6126 92.8071 7.91577 93.1114 9.24368C93.4923 10.9061 93.2744 12.4545 95.3379 12.4545C96.687 12.4545 97.8017 11.7238 98.8391 10.9217C102.563 8.0426 105.914 4.58811 109.407 1.43457" stroke="white" stroke-width="1.58549" stroke-linecap="round"/>
<path d="M1.51562 7.53342C2.12414 9.37742 2.89077 11.1529 3.839 12.8498C4.69137 14.3751 5.78367 15.7297 6.69481 17.2141C6.98929 17.6939 7.2432 18.2402 7.17078 18.8195C7.13426 19.1117 6.78368 17.9644 6.77548 17.9241C6.20596 15.122 7.20328 12.2534 8.66322 9.88907C9.11962 9.14995 9.73119 8.01913 10.5913 7.6625C11.7688 7.17428 12.1677 9.90375 12.3419 10.5425C12.7519 12.0458 13.1857 13.5416 13.5681 15.0521C13.7282 15.6846 13.8783 16.708 14.4394 17.1415C14.8585 17.4654 15.787 17.3624 15.4236 18.271C15.2712 18.6521 14.6117 18.8074 14.3264 18.4888C13.4622 17.5237 14.005 15.4702 14.3103 14.4309C14.9795 12.153 16.1599 10.0338 17.2791 7.95292C17.8292 6.92997 18.3807 5.52311 19.2313 4.69375C19.5324 4.40018 19.8675 4.63009 20.1107 4.86316C20.6687 5.39796 21.2812 5.57358 22.0549 5.33913C24.3896 4.63163 29.2478 -0.511701 31.4452 3.14483C32.704 5.23951 32.2764 8.21494 31.2516 10.2844C29.7404 13.3357 26.8381 15.7731 23.9588 17.4884C22.4525 18.3858 20.7223 19.118 18.9409 19.118C17.7813 19.118 17.8496 18.4089 18.473 17.6256C19.8542 15.8902 21.8212 14.4318 23.4425 12.9224C24.0589 12.3485 24.869 11.6003 25.7658 11.5509C26.8372 11.4919 27.7463 12.7761 28.5168 13.3338C32.2601 16.0432 37.6489 15.0155 40.6015 11.6155C41.0429 11.1073 41.4695 10.5885 41.852 10.0343C42.0123 9.8019 42.3089 9.12185 42.4005 9.3889C42.9716 11.0525 42.6315 12.9917 44.256 14.197C46.1934 15.6344 49.5173 15.3237 51.7021 14.9472C55.1283 14.357 58.1215 12.5654 60.1647 9.72772C61.1691 8.33266 62.1707 6.01352 61.1327 4.36299C59.8369 2.30241 57.0854 3.58416 55.7599 4.85509C53.8647 6.67228 52.1624 9.43611 52.1216 12.1318C52.0932 14.0056 52.9887 14.9772 54.9048 14.923C56.885 14.8671 58.7332 13.9431 60.1082 12.5513C60.3423 12.3143 62.2049 10.3534 61.5119 9.96167C61.1905 9.78001 60.4415 9.87456 60.2776 10.2602C60.2006 10.4414 60.4677 10.5167 60.568 10.5183C61.7429 10.5377 63.0121 9.79096 63.9885 9.26789C66.0873 8.14356 68.0524 6.7956 69.9906 5.4198C70.0686 5.36444 71.0244 4.67844 71.2168 4.59694C71.8093 4.34602 70.7072 5.7858 70.3536 6.32333C68.0139 9.88048 65.7496 13.4823 63.8433 17.2948C63.5121 17.9573 62.9594 19.1583 62.6494 19.8763C62.5263 20.1614 61.5715 21.9016 61.8426 22.2481C61.9223 22.35 68.2288 15.3562 68.6676 14.8908C71.042 12.3716 73.5699 10.0048 75.9442 7.48502C76.0087 7.41662 77.6401 5.74002 76.9284 5.96031C75.5198 6.3963 74.4709 8.30913 73.8467 9.50184C73.159 10.816 72.2897 12.9684 72.9835 14.4551C73.5658 15.7028 75.3872 15.0847 76.2669 14.6165C78.1383 13.6206 79.6851 12.0918 81.3735 10.8329C82.6451 9.88482 84.0576 9.11261 85.2539 8.06586C85.5887 7.77285 86.5511 6.84947 86.2058 7.13006C84.5464 8.47832 83.2291 10.2988 81.9947 12.0188C81.4684 12.7521 80.8412 13.6515 80.3409 14.4229C80.0588 14.8578 79.16 15.9118 79.6713 15.8266C80.1934 15.7396 80.4823 15.1432 80.8491 14.7617C82.2335 13.3219 83.5658 11.8421 85.028 10.478C86.5274 9.07911 88.4664 7.17941 90.6105 6.85577C92.2216 6.6126 92.8071 7.91577 93.1114 9.24368C93.4923 10.9061 93.2744 12.4545 95.3379 12.4545C96.687 12.4545 97.8017 11.7238 98.8391 10.9217C102.563 8.0426 105.914 4.58811 109.407 1.43457" stroke="#00001C" stroke-opacity="0.7" stroke-width="1.58549" stroke-linecap="round"/>
</svg>
