<svg width="322" height="322" viewBox="0 0 322 322" fill="none" xmlns="http://www.w3.org/2000/svg">
<path d="M23.1045 12.0866C23.1045 7.40943 31.8234 1.8124 35.6351 2.48491C131.314 19.3659 192.14 17.8758 286.929 2.48491C291.768 1.69929 298.895 3.63611 298.895 12.0866V102.741C282.4 207.639 252.964 255.622 163.536 319.675C81.4733 268.436 46.1802 224.852 23.1045 102.741V12.0866Z" fill="#009D23"/>
<path fill-rule="evenodd" clip-rule="evenodd" d="M73.1287 74.0133C78.4663 68.035 87.6396 67.5157 93.6179 72.8533C94.0219 73.214 94.5142 73.664 95.0857 74.1865C97.2879 76.1996 100.666 79.2881 104.704 82.487C108.742 79.2882 112.121 76.1996 114.323 74.1865C114.895 73.6641 115.387 73.214 115.791 72.8533C121.769 67.5157 130.943 68.0351 136.28 74.0133C141.618 79.9916 141.099 89.1649 135.12 94.5025C134.898 94.7009 134.573 95.0003 134.154 95.3858C133.933 95.5893 133.686 95.8167 133.414 96.0658C137.361 98.6593 139.967 103.126 139.967 108.202C139.967 116.216 133.47 122.713 125.456 122.713C118.029 122.713 110.827 120.168 104.704 117.078C98.5823 120.168 91.3797 122.713 83.9534 122.713C75.939 122.713 69.4421 116.216 69.4421 108.202C69.4421 103.126 72.048 98.6593 75.9948 96.0658C75.7231 95.8167 75.4761 95.5893 75.255 95.3858C74.8362 95.0003 74.5109 94.7009 74.2887 94.5025C68.3104 89.1649 67.7911 79.9915 73.1287 74.0133ZM248.502 74.0133C253.84 79.9915 253.321 89.1649 247.342 94.5025C247.15 94.6744 246.88 94.9221 246.539 95.2356C251.277 97.624 254.528 102.533 254.528 108.202C254.528 116.216 248.031 122.713 240.016 122.713C232.161 122.713 224.521 119.86 218.096 116.475C211.671 119.86 204.031 122.713 196.175 122.713C188.161 122.713 181.664 116.216 181.664 108.202C181.664 102.533 184.914 97.624 189.653 95.2356C189.312 94.9221 189.042 94.6744 188.85 94.5025C182.871 89.1649 182.352 79.9916 187.69 74.0133C193.027 68.0351 202.201 67.5157 208.179 72.8533C208.583 73.2142 209.075 73.6645 209.647 74.1875C211.63 76.0008 214.568 78.6877 218.096 81.5491C221.623 78.6877 224.562 76.0008 226.545 74.1875C227.116 73.6645 227.609 73.2142 228.013 72.8533C233.991 67.5157 243.165 68.035 248.502 74.0133ZM106.479 140.72C106.623 140.805 106.879 140.952 107.274 141.163C108.304 141.713 109.81 142.447 111.761 143.317C115.644 145.049 120.826 147.114 126.582 149.093C138.553 153.207 151.094 156.277 159.337 156.277C159.616 156.277 159.893 156.285 160.168 156.301C160.443 156.285 160.72 156.277 160.999 156.277C169.242 156.277 181.783 153.207 193.753 149.093C199.51 147.114 204.692 145.049 208.575 143.317C210.526 142.447 212.032 141.713 213.062 141.163C213.457 140.952 213.713 140.805 213.857 140.72C218.513 137.048 224.817 136.661 229.804 139.392C235.452 141.225 239.618 146.438 239.827 152.715C239.969 156.984 238.971 161.167 237.857 164.609C236.68 168.24 235.03 172.071 233.113 175.931C229.274 183.659 223.913 192.402 217.686 201.346C205.242 219.218 188.554 239.011 171.619 254.493C168.724 257.14 165.048 258.393 161.414 258.288C157.78 258.393 154.103 257.14 151.208 254.493C134.273 239.011 117.586 219.218 105.142 201.346C98.9147 192.402 93.5538 183.659 89.7149 175.931C87.7973 172.071 86.1472 168.24 84.971 164.609C83.8564 161.167 82.8582 156.984 83.0004 152.715C83.001 152.698 83.0016 152.681 83.0022 152.664C82.8668 149.046 84.077 145.372 86.6788 142.458C91.8153 136.705 100.504 136.008 106.479 140.72ZM125.145 179.127C126.35 180.961 127.623 182.842 128.96 184.763C138.012 197.764 149.509 211.836 161.414 223.992C173.318 211.836 184.816 197.764 193.868 184.763C195.443 182.501 196.928 180.293 198.318 178.154C186.603 181.894 172.636 185.3 160.999 185.3C160.72 185.3 160.443 185.292 160.168 185.276C159.893 185.292 159.616 185.3 159.337 185.3C148.719 185.3 136.162 182.464 125.145 179.127Z" fill="white"/>
</svg>
