<svg width="126" height="19" viewBox="0 0 126 19" fill="none" xmlns="http://www.w3.org/2000/svg">
<path d="M3.44561 0.335449H7.11992L5.09356 10.0522L4.59307 12.4448C4.56052 12.6483 4.54424 12.8395 4.54424 13.0186C4.54424 13.7266 4.80059 14.3125 5.31328 14.7764C5.83412 15.2321 6.58688 15.46 7.57158 15.46C8.45863 15.46 9.19105 15.2931 9.76885 14.9595C10.3466 14.6258 10.7942 14.1294 11.1116 13.4702C11.429 12.811 11.7505 11.6921 12.076 10.1133L14.1268 0.335449H17.8011L15.7625 10.1255C15.3312 12.1844 14.8348 13.7591 14.2732 14.8496C13.7117 15.9401 12.8613 16.8271 11.722 17.5107C10.5827 18.1943 9.14222 18.5361 7.40068 18.5361C5.31735 18.5361 3.7223 18.0275 2.61553 17.0103C1.50876 15.9849 0.955372 14.6706 0.955372 13.0674C0.955372 12.7337 0.983855 12.3716 1.04082 11.981C1.07337 11.7205 1.21579 10.98 1.46807 9.75928L3.44561 0.335449ZM31.3711 18.231H27.9409L23.1069 6.20703L20.5923 18.231H17.1621L20.8975 0.335449H24.3398L29.186 12.3105L31.6885 0.335449H35.1064L31.3711 18.231ZM34.9924 12.4326L38.4958 12.2495C38.5446 13.3644 38.7359 14.1172 39.0695 14.5078C39.6066 15.1426 40.5995 15.46 42.048 15.46C43.2525 15.46 44.1232 15.2443 44.6604 14.813C45.1975 14.3817 45.466 13.8608 45.466 13.2505C45.466 12.7215 45.2463 12.2739 44.8068 11.9077C44.4976 11.6392 43.6472 11.2038 42.2556 10.6016C40.8721 9.99935 39.8589 9.49886 39.216 9.1001C38.5812 8.6932 38.0808 8.16829 37.7146 7.52539C37.3483 6.88249 37.1652 6.12972 37.1652 5.26709C37.1652 3.76156 37.7105 2.51237 38.801 1.51953C39.8915 0.526693 41.4702 0.0302734 43.5373 0.0302734C45.6369 0.0302734 47.2604 0.522624 48.4079 1.50732C49.5635 2.49202 50.1983 3.80225 50.3122 5.43799L46.7844 5.59668C46.6949 4.74219 46.3856 4.08708 45.8566 3.63135C45.3277 3.17562 44.5464 2.94775 43.5129 2.94775C42.4956 2.94775 41.7673 3.12679 41.3278 3.48486C40.8965 3.84294 40.6809 4.2946 40.6809 4.83984C40.6809 5.35254 40.8802 5.77572 41.279 6.10938C41.6778 6.45117 42.5607 6.91911 43.9279 7.51318C45.9868 8.40023 47.2971 9.12044 47.8586 9.67383C48.6968 10.4876 49.1159 11.5334 49.1159 12.811C49.1159 14.3898 48.4893 15.7407 47.236 16.8638C45.9909 17.9787 44.2534 18.5361 42.0236 18.5361C40.4855 18.5361 39.1509 18.2798 38.0197 17.7671C36.8967 17.2463 36.1032 16.526 35.6394 15.6064C35.1755 14.6868 34.9598 13.6289 34.9924 12.4326ZM50.247 18.231L53.9945 0.335449H57.6688L53.9335 18.231H50.247ZM66.6246 8.67285H74.6324L73.0211 16.3511C72.0771 16.9614 70.9174 17.4782 69.5421 17.9014C68.1749 18.3245 66.7792 18.5361 65.3551 18.5361C63.1415 18.5361 61.4448 18.0356 60.2647 17.0347C58.6534 15.6675 57.8478 13.6859 57.8478 11.0898C57.8478 9.34831 58.1936 7.68001 58.8854 6.08496C59.7154 4.16439 60.8954 2.67513 62.4254 1.61719C63.9553 0.559245 65.7538 0.0302734 67.8209 0.0302734C69.888 0.0302734 71.544 0.510417 72.7892 1.4707C74.0424 2.43099 74.8725 3.83073 75.2794 5.66992L71.8492 6.06055C71.5481 5.05143 71.0598 4.29053 70.3844 3.77783C69.7171 3.26514 68.8748 3.00879 67.8575 3.00879C66.6694 3.00879 65.5789 3.31803 64.586 3.93652C63.5932 4.55501 62.816 5.51123 62.2545 6.80518C61.693 8.09912 61.4122 9.51107 61.4122 11.041C61.4122 12.5465 61.754 13.6615 62.4376 14.3857C63.1212 15.1019 64.1222 15.46 65.4405 15.46C66.2299 15.46 67.0396 15.3501 67.8697 15.1304C68.6998 14.9025 69.416 14.634 70.0182 14.3247L70.5675 11.6636H66.0021L66.6246 8.67285ZM89.7283 18.231H86.2981L81.4642 6.20703L78.9495 18.231H75.5193L79.2547 0.335449H82.6971L87.5433 12.3105L90.0457 0.335449H93.4637L89.7283 18.231ZM92.7881 18.231L96.5234 0.335449H109.792L109.17 3.32617H99.5874L98.7329 7.39111H107.998L107.375 10.3818H98.1104L96.9873 15.2402H107.4L106.765 18.231H92.7881ZM108.824 18.231L112.571 0.335449H117.393C118.736 0.335449 119.595 0.355794 119.969 0.396484C120.71 0.469727 121.369 0.62028 121.946 0.848145C122.532 1.07601 123.061 1.39746 123.533 1.8125C124.014 2.2194 124.425 2.71175 124.766 3.28955C125.116 3.86735 125.385 4.53467 125.572 5.2915C125.759 6.0402 125.853 6.86214 125.853 7.75732C125.853 9.68604 125.482 11.3991 124.742 12.8965C124.009 14.3857 123.086 15.5698 121.971 16.4487C121.116 17.1323 120.014 17.6369 118.663 17.9624C117.898 18.1414 116.722 18.231 115.135 18.231H108.824ZM113.109 15.3501H114.976C116.327 15.3501 117.304 15.2687 117.906 15.106C118.516 14.9351 119.074 14.6217 119.578 14.166C120.303 13.5068 120.913 12.6279 121.409 11.5293C121.906 10.4307 122.154 9.13672 122.154 7.64746C122.154 6.37793 121.946 5.42578 121.531 4.79102C121.125 4.14811 120.62 3.72087 120.018 3.50928C119.595 3.36279 118.842 3.28955 117.759 3.28955H115.623L113.109 15.3501Z" fill="#4C4C60"/>
</svg>
